#!OML:ASF H:\Martial Arts Walks\Project 1\Capture day 1\Session 1\male.ASF
:FULLY-SPECIFIED
:DEGREES
576
root -3.45646 16.0793 -9.54976 -30.1786 -16.0155 4.3565
lowerback 39.6283 5.85233 2.54688
upperback 11.0085 7.92949 -1.51733
thorax -6.334 3.83371 -5.92424
lowerneck 0.128241 -4.22843 -8.172
upperneck 7.41296 -5.88793 6.2869
head 2.88522 -2.99097 3.38952
rclavicle -2.23384e-014 -1.98785e-015
rhumerus -14.6279 33.2147 -63.4371
rradius 67.7474
rwrist 7.3406
rhand -14.3128 -36.9749
rfingers 7.12502
rthumb 11.8275 -66.6209
lclavicle -2.23384e-014 -1.98785e-015
lhumerus -27.9726 -7.59303 79.2733
lradius 72.5293
lwrist 23.4544
lhand -32.5131 19.0308
lfingers 7.12502
lthumb -5.74413 48.933
rfemur 9.42127 0.994853 17.7772
rtibia 49.5549
rfoot -21.6469 -13.0916
rtoes -2.64016
lfemur -92.484 8.3289 4.39645
ltibia 77.0076
lfoot -11.1701 12.6639
ltoes -17.2733
577
root -3.4506 16.131 -9.343 -30.8317 -16.8982 4.96192
lowerback 39.5753 6.13757 1.97392
upperback 11.0297 8.0232 -1.75959
thorax -6.31616 3.87405 -5.91931
lowerneck -0.277627 -4.09957 -8.06042
upperneck 8.07808 -5.70223 6.1532
head 3.16335 -2.89678 3.3229
rclavicle -3.39922e-014 1.70955e-014
rhumerus -14.7274 33.9728 -63.9964
rradius 67.614
rwrist 7.12285
rhand -14.4538 -36.9802
rfingers 7.12502
rthumb 11.6915 -66.6339
lclavicle -3.39922e-014 1.70955e-014
lhumerus -28.8383 -7.22378 78.8875
lradius 71.9766
lwrist 23.5047
lhand -32.4841 17.6268
lfingers 7.12502
lthumb -5.71614 47.5297
rfemur 10.9324 1.41675 17.6628
rtibia 48.5454
rfoot -21.4957 -14.5035
rtoes -0.82984
lfemur -90.7505 8.8775 7.03037
ltibia 66.5141
lfoot -11.2267 13.4486
ltoes -16.9696
578
root -3.45429 16.1924 -9.15685 -31.1621 -17.7116 5.32833
lowerback 39.3245 6.29788 1.61015
upperback 11.0133 8.04964 -1.99288
thorax -6.26154 3.8866 -5.97485
lowerneck -0.654739 -3.98347 -7.97407
upperneck 8.53746 -5.53185 6.06594
head 3.3722 -2.80943 3.27849
rclavicle -5.9039e-014 4.8901e-014
rhumerus -15.0763 34.5224 -64.6365
rradius 67.8289
rwrist 6.74338
rhand -14.3236 -37.4779
rfingers 7.12502
rthumb 11.817 -67.1245
lclavicle -5.9039e-014 4.8901e-014
lhumerus -29.4793 -6.77242 78.4167
lradius 71.4545
lwrist 23.3374
lhand -32.1495 15.7557
lfingers 7.12502
lthumb -5.39306 45.6671
rfemur 12.2216 2.11642 17.9152
rtibia 47.4181
rfoot -21.3193 -15.5824
rtoes 0.524894
lfemur -88.6842 9.45514 10.061
ltibia 55.382
lfoot -10.0432 14.9513
ltoes -17.3597
579
root -3.46754 16.2564 -8.99644 -31.1411 -18.2984 5.50524
lowerback 38.7603 6.30873 1.36219
upperback 10.9779 7.94729 -2.22541
thorax -6.12686 3.84375 -6.01996
lowerneck -0.893268 -3.87422 -7.80248
upperneck 8.9944 -5.40543 6.16985
head 3.19776 -2.71634 2.96152
rclavicle 1.07642e-013 -5.68524e-014
rhumerus -15.5283 34.9256 -65.3469
rradius 68.224
rwrist 6.18276
rhand -14.3785 -37.7429
rfingers 7.12502
rthumb 11.7641 -67.3926
lclavicle 1.07642e-013 -5.68524e-014
lhumerus -29.895 -6.24903 77.8707
lradius 70.9126
lwrist 22.8671
lhand -31.0456 13.6282
lfingers 7.12502
lthumb -4.32722 43.564
rfemur 13.2346 2.97541 18.3679
rtibia 46.2394
rfoot -20.96 -16.4529
rtoes 0.827084
lfemur -86.7726 10.107 13.2747
ltibia 44.4447
lfoot -7.06799 16.2114
ltoes -15.6034
580
root -3.48692 16.3077 -8.85403 -30.8081 -18.636 5.49563
lowerback 37.8304 6.20627 1.145
upperback 10.9462 7.74035 -2.36458
thorax -5.88326 3.75373 -5.9178
lowerneck -1.12159 -3.74591 -7.72882
upperneck 9.12092 -5.21262 6.01878
head 3.25405 -2.62093 2.90627
rclavicle -1.2921e-014 2.98177e-014
rhumerus -16.1686 35.1677 -66.0345
rradius 68.8296
rwrist 5.62331
rhand -14.2091 -37.4688
rfingers 7.12502
rthumb 11.9275 -67.109
lclavicle -1.2921e-014 2.98177e-014
lhumerus -30.0891 -5.63707 77.3825
lradius 70.2453
lwrist 21.9806
lhand -29.8754 11.5578
lfingers 7.12502
lthumb -3.19708 41.5136
rfemur 13.991 3.78444 18.8828
rtibia 45.0915
rfoot -20.4362 -17.3075
rtoes -0.250519
lfemur -85.0083 10.4264 17.6243
ltibia 34.6228
lfoot -3.91982 18.167
ltoes -12.4221
581
root -3.49686 16.33 -8.68635 -30.6122 -18.6806 5.41914
lowerback 37.0164 5.94089 0.990215
upperback 10.9332 7.36181 -2.44827
thorax -5.66636 3.57875 -5.73699
lowerneck -1.23051 -3.58472 -7.62226
upperneck 8.88872 -4.93783 5.51227
head 3.51796 -2.51601 3.03537
rclavicle -1.04362e-014 3.97569e-016
rhumerus -17.0317 35.4793 -66.656
rradius 69.7739
rwrist 4.86005
rhand -13.784 -37.4703
rfingers 7.12502
rthumb 12.3374 -67.0863
lclavicle -1.04362e-014 3.97569e-016
lhumerus -30.1954 -4.94072 76.9766
lradius 69.4394
lwrist 20.6348
lhand -28.9995 9.92709
lfingers 7.12502
lthumb -2.35122 39.8939
rfemur 14.9745 4.16301 19.0632
rtibia 44.0851
rfoot -20.1946 -17.925
rtoes -1.48186
lfemur -83.7655 10.6586 21.6195
ltibia 27.1721
lfoot -0.92923 20.0352
ltoes -10.0138
582
root -3.49211 16.338 -8.50473 -30.8152 -18.3414 5.48407
lowerback 36.5559 5.53468 0.896243
upperback 10.9915 6.82018 -2.58218
thorax -5.48906 3.32651 -5.60638
lowerneck -1.05308 -3.41279 -7.60203
upperneck 8.64677 -4.70375 5.38769
head 3.37552 -2.40449 2.99804
rclavicle -4.96962e-015 -9.14409e-015
rhumerus -18.1679 35.515 -67.3176
rradius 70.9684
rwrist 4.14501
rhand -13.0956 -38.0346
rfingers 7.12502
rthumb 13.0011 -67.6095
lclavicle -4.96962e-015 -9.14409e-015
lhumerus -29.9821 -4.425 76.6719
lradius 68.2596
lwrist 18.8787
lhand -28.8008 8.83196
lfingers 7.12502
lthumb -2.15937 38.8008
rfemur 16.2557 3.93998 18.5572
rtibia 43.3482
rfoot -20.4732 -18.0103
rtoes -2.0357
lfemur -84.1192 10.9666 22.9003
ltibia 23.7904
lfoot 0.892151 21.0227
ltoes -9.84564
583
root -3.47891 16.3264 -8.31113 -31.3176 -18.0964 5.64698
lowerback 36.4417 5.20488 0.828
upperback 11.0407 6.37616 -2.69459
thorax -5.43039 3.11566 -5.52591
lowerneck -0.819688 -3.26486 -7.51324
upperneck 8.40019 -4.51335 5.31729
head 3.22488 -2.31106 2.96502
rclavicle 2.49475e-014 -2.98177e-014
rhumerus -19.621 35.3703 -67.9758
rradius 72.2283
rwrist 3.90564
rhand -12.6722 -37.2867
rfingers 7.12502
rthumb 13.4092 -66.8352
lclavicle 2.49475e-014 -2.98177e-014
lhumerus -29.5669 -4.10242 76.4895
lradius 66.8637
lwrist 16.8909
lhand -29.0655 8.24261
lfingers 7.12502
lthumb -2.41497 38.2087
rfemur 17.603 3.61723 17.789
rtibia 42.9912
rfoot -20.9887 -17.8167
rtoes -2.8492
lfemur -86.8456 12.0364 19.8833
ltibia 25.2667
lfoot 0.910889 19.8435
ltoes -9.93542
584
root -3.45553 16.284 -8.11225 -31.9141 -18.0145 5.55132
lowerback 36.6429 4.859 1.00579
upperback 11.0975 5.99943 -2.70256
thorax -5.45542 2.93478 -5.50427
lowerneck -0.915588 -3.1051 -7.41301
upperneck 8.41982 -4.31359 5.51023
head 3.23801 -2.2024 3.02021
rclavicle -5.15846e-014 3.49861e-014
rhumerus -20.9472 34.9466 -68.4779
rradius 73.5251
rwrist 3.67535
rhand -11.6062 -37.6271
rfingers 7.12502
rthumb 14.4365 -67.105
lclavicle -5.15846e-014 3.49861e-014
lhumerus -28.7473 -3.86537 76.3689
lradius 65.1897
lwrist 14.7994
lhand -29.8783 8.34473
lfingers 7.12502
lthumb -3.19989 38.3005
rfemur 18.8184 3.19976 17.2142
rtibia 43.1074
rfoot -21.486 -17.8903
rtoes -4.30728
lfemur -91.21 13.1112 15.0637
ltibia 30.4304
lfoot -0.128525 17.3519
ltoes -9.92918
585
root -3.42462 16.2061 -7.90884 -32.2712 -18.2507 5.14107
lowerback 36.7118 4.56636 1.41462
upperback 11.1449 5.78947 -2.52947
thorax -5.42903 2.83446 -5.46055
lowerneck -1.04303 -3.05693 -7.28829
upperneck 8.38253 -4.25952 5.68577
head 3.24697 -2.16474 3.0587
rclavicle -4.70126e-014 4.17448e-014
rhumerus -22.3864 34.3741 -68.7805
rradius 74.8903
rwrist 3.59854
rhand -10.9849 -37.6435
rfingers 7.12502
rthumb 15.0351 -67.0776
lclavicle -4.70126e-014 4.17448e-014
lhumerus -27.6059 -3.68249 76.3729
lradius 63.3557
lwrist 12.8761
lhand -30.9779 8.80539
lfingers 7.12502
lthumb -4.2618 38.7425
rfemur 19.5139 2.72757 17
rtibia 43.7902
rfoot -22.0282 -18.4304
rtoes -6.32375
lfemur -96.0516 14.0141 10.8057
ltibia 37.4461
lfoot -1.09404 14.7201
ltoes -9.87968
586
root -3.38973 16.1069 -7.70688 -32.7802 -18.9365 4.81087
lowerback 36.9173 4.50686 1.70205
upperback 11.1869 5.83544 -2.2075
thorax -5.45429 2.84734 -5.29303
lowerneck -1.19154 -2.96286 -7.24126
upperneck 8.33931 -4.14579 5.94089
head 3.25892 -2.09715 3.14218
rclavicle 3.95085e-014 -4.69132e-014
rhumerus -24.0207 33.7423 -68.9431
rradius 76.3158
rwrist 3.74174
rhand -10.6987 -37.6212
rfingers 7.12502
rthumb 15.3107 -67.0344
lclavicle 3.95085e-014 -4.69132e-014
lhumerus -26.4582 -3.4422 76.5165
lradius 61.6694
lwrist 11.2639
lhand -31.8803 9.88637
lfingers 7.12502
lthumb -5.13315 39.8042
rfemur 20.0113 2.35227 16.8414
rtibia 44.8926
rfoot -22.8238 -18.8739
rtoes -7.24119
lfemur -100.752 14.8891 7.4238
ltibia 45.9819
lfoot -2.12689 12.3708
ltoes -11.3194
587
root -3.34894 15.9768 -7.47894 -33.4216 -20.1042 4.84632
lowerback 37.1358 4.72172 1.65712
upperback 11.2223 6.10197 -1.85896
thorax -5.50201 2.95632 -5.00414
lowerneck -1.33586 -2.8173 -7.25321
upperneck 8.18537 -3.95326 6.15324
head 3.22589 -1.99312 3.22435
rclavicle 5.38706e-014 -3.77691e-014
rhumerus -25.7901 33.1822 -69.0246
rradius 77.7705
rwrist 4.00176
rhand -10.4818 -37.5866
rfingers 7.12502
rthumb 15.5197 -66.9837
lclavicle 5.38706e-014 -3.77691e-014
lhumerus -25.4174 -2.95758 76.6803
lradius 60.2482
lwrist 9.99922
lhand -32.6799 11.2059
lfingers 7.12502
lthumb -5.90519 41.1036
rfemur 20.2845 2.24072 16.4477
rtibia 46.4319
rfoot -23.7839 -19.6743
rtoes -8.31543
lfemur -104.901 16.1223 4.88245
ltibia 55.0801
lfoot -2.82485 10.4536
ltoes -13.0281
588
root -3.31266 15.8865 -7.32093 -34.0648 -21.7477 5.26216
lowerback 37.2542 5.16727 1.39804
upperback 11.2678 6.56733 -1.58041
thorax -5.50463 3.15907 -4.74379
lowerneck -1.46554 -2.64182 -7.22994
upperneck 7.8543 -3.70897 6.27879
head 3.12042 -1.86434 3.26962
rclavicle -1.59028e-015 1.94809e-014
rhumerus -27.4364 32.609 -69.0815
rradius 79.01
rwrist 4.32138
rhand -10.763 -37.5033
rfingers 7.12502
rthumb 15.2487 -66.9213
lclavicle -1.59028e-015 1.94809e-014
lhumerus -24.4931 -2.38818 76.7601
lradius 59.163
lwrist 9.2518
lhand -33.5366 13.0564
lfingers 7.12502
lthumb -6.73222 42.9294
rfemur 19.9856 2.40041 16.041
rtibia 48.1077
rfoot -24.2577 -20.9084
rtoes -9.70537
lfemur -109.194 17.8219 2.76943
ltibia 65.0868
lfoot -4.73692 8.50654
ltoes -12.8114
